# xmcd CD database file
#
# Track frame offsets:
#	150
#	18377
#	38475
#	55387
#	71170
#	93605
#	111352
#	129993
#	151941
#	173931
#	192828
#	213391
#	229383
#	245721
#	262230
#
# Disc length: 3784 seconds
#
# Revision: 1
# Processed by: cddbd v1.5.1PL0 Copyright (c) Steve Scherf et al.
# Submitted via: CDex 1.51
#
DISCID=dd0ec60f
DTITLE=Various Artist - Smooth Jazz 98.1 CD Sampler 2005
DYEAR=2004
DGENRE=Jazz
TTITLE0=Mindi Abair_Lucy's
TTITLE1=Norman Brown_Just Chillin'
TTITLE2=Jazzmasters_Puerto Banus
TTITLE3=The Braxton Brothers_Whenever I See You
TTITLE4=Marc Antoine_Funkie Picante
TTITLE5=Praful_Sigh
TTITLE6=Joyce Cooling_Expression
TTITLE7=Jeff Kashiwa_3 Day Weekend
TTITLE8=Michael Manson_Outer Drive
TTITLE9=Spyro Gyra_Getaway
TTITLE10=Count Basic_M.L. in the Sunshine
TTITLE11=Jimmy Sommers_Take My Heart
TTITLE12=Chris Botti_Indian Summer
TTITLE13=Pamela Williams_Afterglow
TTITLE14=Bryan Savage_Soul Temptation
EXTD=YEAR: 2004
EXTT0=
EXTT1=
EXTT2=
EXTT3=
EXTT4=
EXTT5=
EXTT6=
EXTT7=
EXTT8=
EXTT9=
EXTT10=
EXTT11=
EXTT12=
EXTT13=
EXTT14=
PLAYORDER=
